<svg width="23" height="13" viewBox="0 0 23 13" fill="none" xmlns="http://www.w3.org/2000/svg">
<path d="M4.52207 2.27502C4.45337 2.04839 4.44956 1.81263 4.74443 1.71762C5.02025 1.62902 5.17011 1.79446 5.2465 2.0312C5.40296 2.47803 5.56834 2.92611 5.71466 3.3806C5.77287 3.55149 5.76219 3.69477 5.67613 3.79147C5.50401 3.98485 5.11768 3.88629 5.02345 3.64709C4.82239 3.1941 4.66716 2.73838 4.52207 2.27502ZM4.63366 4.5614C4.51914 4.33749 4.33273 4.23938 4.10028 4.34301C3.87675 4.44787 3.82181 4.64837 3.93511 4.88116C4.13337 5.28853 4.30243 5.70995 4.51084 6.10967C4.79129 6.64601 5.08188 7.1747 5.4029 7.68044C5.46969 7.78918 5.69792 7.84783 5.83783 7.8219C5.86582 7.81672 5.89503 7.80266 5.92546 7.77971C6.0598 7.66254 6.07137 7.44702 6.00424 7.27489C5.5563 6.37163 5.09052 5.46589 4.63366 4.5614ZM7.49075 7.63387C7.733 7.45922 7.60344 7.27849 7.48524 7.08122C7.25776 6.68791 7.02906 6.30346 6.8308 5.89609C6.58759 5.41919 6.39389 4.91292 6.13162 4.44243C6.07777 4.37167 6.01376 4.30854 5.93717 4.27083C5.86179 4.22423 5.77383 4.20306 5.69233 4.20086C5.66557 4.19717 5.64529 4.21244 5.61608 4.22651C5.41809 4.34394 5.38656 4.63818 5.48446 4.85074C5.80774 5.53775 6.13993 6.22599 6.47335 6.90535C6.58018 7.11914 6.69715 7.32528 6.83441 7.51613C7.00244 7.74743 7.23836 7.81618 7.49075 7.63387ZM12.9409 7.52664C12.8461 7.8845 13.0707 8.23221 13.4392 8.32831C14.6326 8.6378 15.8196 8.9283 16.9878 9.2886C18.2695 9.68266 19.5036 10.224 20.6557 10.8987C20.6812 10.9113 20.6662 10.9544 20.6317 10.9406C18.1189 9.85186 15.4491 9.17573 12.7294 8.92699C12.6658 8.92725 12.6009 8.9364 12.5425 8.96453C12.484 8.99265 12.4333 9.03088 12.3903 9.07923C12.1097 9.46574 12.3978 10.0122 12.8718 10.0685L15.9551 10.4489C15.9818 10.4526 15.9972 10.4728 15.9935 10.4995C15.9911 10.5172 15.9708 10.5325 15.9517 10.5389L11.7582 10.6296C13.1298 10.7013 14.4852 10.8251 15.8348 11.0566C16.1012 11.1024 16.053 11.3853 15.7818 11.375C13.4042 11.282 11.0442 11.3906 8.74967 12.0782C5.44077 13.069 1.89322 11.1136 1.04915 7.81234C0.189361 4.42745 2.2721 1.05967 5.6768 0.362483C5.95786 0.301754 6.23524 0.26768 6.51507 0.215829C6.60794 0.201505 6.69959 0.196054 6.79123 0.190608C6.90072 0.187625 7.00897 0.193521 7.12492 0.209526C7.62317 0.287349 8.11618 0.337295 8.59939 0.45828C9.00355 0.559305 9.38006 0.728895 9.7655 0.899717C10.4265 1.18096 11.0624 1.51303 11.7348 1.77775C13.8899 2.62713 15.9795 3.6213 17.8737 4.97753C18.8502 5.67327 19.823 6.39564 20.7528 7.16636C19.613 6.40283 18.4516 5.66348 17.25 5.0181C16.8184 4.78662 16.5447 5.2555 16.9409 5.54544L17.3793 5.85928C17.387 5.8694 17.3858 5.87827 17.3757 5.88592C17.3757 5.88592 17.3655 5.89357 17.3578 5.88346L14.1783 4.42219C13.5287 4.12442 12.8112 4.713 13.0173 5.39289C13.065 5.50805 13.1699 5.60396 13.2899 5.65671C14.0746 5.96407 14.8845 6.22065 15.6452 6.56994C16.5259 6.97198 17.4155 7.37523 18.2255 7.89419C19.5542 8.73807 20.8337 9.67469 22.1271 10.577C22.2025 10.6236 22.1481 10.6885 22.0727 10.6419C19.53 8.97904 16.7173 7.75838 13.7645 7.02509C13.4062 6.92134 13.0357 7.16877 12.9409 7.52664ZM12.2169 6.91101C12.4337 5.07711 11.8028 3.52429 10.4084 2.30038C8.64044 0.753481 5.93403 0.606104 3.99692 1.93111C3.78633 2.07395 3.71443 2.19974 3.81636 2.44905C3.96846 2.79576 4.08244 3.15529 4.20656 3.50719C4.29187 3.74516 4.26123 3.96714 3.9765 4.0545C3.71975 4.13668 3.56866 3.98011 3.48982 3.76113C3.36971 3.44598 3.25976 3.12317 3.14088 2.79914C3.13441 2.78015 3.11902 2.75992 3.10241 2.74858C3.05135 2.72343 2.99415 2.74271 2.97018 2.78464C2.94499 2.83544 2.92103 2.87736 2.88692 2.92694C1.82322 4.24583 1.47217 5.73548 1.80824 7.38331C2.31576 9.89623 4.64627 11.6475 7.35867 11.488C8.58694 11.4133 9.73779 10.9117 10.6258 10.0752C11.5127 9.24761 12.077 8.12218 12.2169 6.91101ZM6.84108 8.52136C6.76047 8.4469 6.55165 8.44522 6.43604 8.4926C6.24417 8.56563 6.2597 8.84823 6.36251 9.02528C6.58229 9.40848 7.05494 9.93517 7.24347 9.95214C7.36065 9.95927 7.53991 9.91162 7.60691 9.82135C7.67513 9.72219 7.70577 9.50024 7.64422 9.41937C7.38788 9.1035 7.12909 8.8054 6.84108 8.52136ZM8.4298 8.46921C8.20089 8.2838 7.69488 8.6573 7.85154 8.90512C8.04545 9.21236 8.31929 9.46729 8.56515 9.72742C8.69962 9.87265 9.00376 9.84227 9.11747 9.67701C9.12761 9.66936 9.13006 9.6516 9.13129 9.64272C9.15981 9.50189 9.14987 9.31053 9.07539 9.19167C8.89442 8.92241 8.67409 8.67484 8.4298 8.46921Z" fill="white"/>
</svg>
