<svg width="72" height="46" viewBox="0 0 72 46" fill="none" xmlns="http://www.w3.org/2000/svg">
<rect x="8.29395" y="11" width="63" height="24" rx="12" fill="#008632"/>
<g filter="url(#filter0_d_42_20)">
<circle cx="23.2939" cy="23" r="5" fill="white" fill-opacity="0.5" shape-rendering="crispEdges"/>
</g>
<circle cx="23.2939" cy="23" r="3" fill="white"/>
<path d="M44.9658 25.6289V27H40.6709V25.6289H44.9658ZM41.2393 18.4687V27H39.4814V18.4687H41.2393ZM47.6494 20.6601V27H45.9561V20.6601H47.6494ZM45.8506 19.0078C45.8506 18.7617 45.9365 18.5586 46.1084 18.3984C46.2803 18.2383 46.5107 18.1582 46.7998 18.1582C47.085 18.1582 47.3135 18.2383 47.4854 18.3984C47.6611 18.5586 47.749 18.7617 47.749 19.0078C47.749 19.2539 47.6611 19.457 47.4854 19.6172C47.3135 19.7773 47.085 19.8574 46.7998 19.8574C46.5107 19.8574 46.2803 19.7773 46.1084 19.6172C45.9365 19.457 45.8506 19.2539 45.8506 19.0078ZM51.2002 25.7695L52.6064 20.6601H54.3701L52.2314 27H51.165L51.2002 25.7695ZM50.2334 20.6601L51.6455 25.7754L51.6748 27H50.6025L48.4639 20.6601H50.2334ZM57.9619 27.1172C57.4697 27.1172 57.0283 27.039 56.6377 26.8828C56.2471 26.7226 55.915 26.5019 55.6416 26.2207C55.3721 25.9394 55.165 25.6133 55.0205 25.2422C54.876 24.8672 54.8037 24.4687 54.8037 24.0469V23.8125C54.8037 23.332 54.8721 22.8926 55.0088 22.4941C55.1455 22.0957 55.3408 21.75 55.5947 21.457C55.8525 21.164 56.165 20.9394 56.5322 20.7832C56.8994 20.623 57.3135 20.543 57.7744 20.543C58.2236 20.543 58.6221 20.6172 58.9697 20.7656C59.3174 20.914 59.6084 21.125 59.8428 21.3984C60.0811 21.6719 60.2607 22 60.3818 22.3828C60.5029 22.7617 60.5635 23.1836 60.5635 23.6484V24.3515H55.5244V23.2265H58.9053V23.0976C58.9053 22.8633 58.8623 22.6543 58.7764 22.4707C58.6943 22.2832 58.5693 22.1348 58.4014 22.0254C58.2334 21.916 58.0186 21.8613 57.7568 21.8613C57.5342 21.8613 57.3428 21.9101 57.1826 22.0078C57.0225 22.1055 56.8916 22.2422 56.79 22.418C56.6924 22.5937 56.6182 22.8008 56.5674 23.039C56.5205 23.2734 56.4971 23.5312 56.4971 23.8125V24.0469C56.4971 24.3008 56.5322 24.5351 56.6025 24.75C56.6768 24.9648 56.7803 25.1504 56.9131 25.3066C57.0498 25.4629 57.2139 25.584 57.4053 25.6699C57.6006 25.7558 57.8213 25.7988 58.0674 25.7988C58.3721 25.7988 58.6553 25.7402 58.917 25.623C59.1826 25.5019 59.4111 25.3203 59.6025 25.0781L60.4229 25.9687C60.29 26.1601 60.1084 26.3437 59.8779 26.5195C59.6514 26.6953 59.3779 26.8398 59.0576 26.9531C58.7373 27.0625 58.3721 27.1172 57.9619 27.1172Z" fill="white"/>
<defs>
<filter id="filter0_d_42_20" x="0.293945" y="-1.52588e-05" width="46" height="46" filterUnits="userSpaceOnUse" color-interpolation-filters="sRGB">
<feFlood flood-opacity="0" result="BackgroundImageFix"/>
<feColorMatrix in="SourceAlpha" type="matrix" values="0 0 0 0 0 0 0 0 0 0 0 0 0 0 0 0 0 0 127 0" result="hardAlpha"/>
<feMorphology radius="2" operator="dilate" in="SourceAlpha" result="effect1_dropShadow_42_20"/>
<feOffset/>
<feGaussianBlur stdDeviation="8"/>
<feComposite in2="hardAlpha" operator="out"/>
<feColorMatrix type="matrix" values="0 0 0 0 0 0 0 0 0 0 0 0 0 0 0 0 0 0 0.1 0"/>
<feBlend mode="normal" in2="BackgroundImageFix" result="effect1_dropShadow_42_20"/>
<feBlend mode="normal" in="SourceGraphic" in2="effect1_dropShadow_42_20" result="shape"/>
</filter>
</defs>
</svg>
