<svg width="16" height="16" viewBox="0 0 16 16" fill="none" xmlns="http://www.w3.org/2000/svg">
<path d="M15.6149 6.33766C15.6161 5.96778 15.4862 5.6643 15.234 5.40685C14.7884 4.95101 14.2278 4.68053 13.6339 4.49803C12.9711 4.29435 12.2917 4.14363 11.6171 3.97946C11.5169 3.95502 11.4802 3.92569 11.4855 3.82426C11.4928 3.6829 11.4875 3.54114 11.4875 3.38349C11.5527 3.38024 11.6065 3.37575 11.6603 3.37575C12.143 3.37535 12.6257 3.37413 13.1084 3.37575C13.2477 3.37616 13.374 3.35498 13.4486 3.22096C13.5251 3.08246 13.4811 2.95862 13.4013 2.83641C13.2848 2.65758 13.1781 2.47264 13.0591 2.29625C13.0082 2.22089 13.0119 2.16508 13.0608 2.09176C13.1842 1.90559 13.2978 1.71291 13.4184 1.52512C13.493 1.40943 13.5178 1.29048 13.4473 1.16705C13.3797 1.0481 13.2689 1.01307 13.1373 1.01348C12.5023 1.01551 11.8668 1.01348 11.2317 1.0147C10.9889 1.01511 10.8789 1.1255 10.8785 1.37073C10.8769 2.1329 10.8777 2.89548 10.8777 3.65765C10.8777 3.71753 10.8777 3.77741 10.8777 3.81C9.61857 3.74849 8.37327 3.68779 7.11657 3.62669V2.76553H7.28236C7.76508 2.76553 8.2478 2.76431 8.73053 2.76634C8.86943 2.76675 8.9949 2.74638 9.07189 2.61318C9.15255 2.47345 9.10407 2.35165 9.02545 2.22985C8.90936 2.05102 8.80181 1.86649 8.68368 1.68888C8.6352 1.61596 8.63031 1.56178 8.68123 1.48601C8.80874 1.29659 8.92769 1.10147 9.04582 0.905527C9.20184 0.646854 9.06782 0.406512 8.76556 0.40529C8.13048 0.402846 7.495 0.403661 6.85993 0.40529C6.61022 0.405697 6.49738 0.518943 6.49697 0.770691C6.49575 1.68562 6.49657 2.60014 6.49657 3.51507V3.69838C5.22723 3.77456 3.97664 3.92528 2.74031 4.25361V3.38512C2.79652 3.38187 2.84989 3.37616 2.90325 3.37575C3.38597 3.37494 3.86869 3.37372 4.35141 3.37575C4.49684 3.37657 4.62719 3.35254 4.70011 3.20955C4.76855 3.07512 4.72415 2.95577 4.64756 2.83845C4.53146 2.65962 4.42351 2.47549 4.30538 2.29788C4.2569 2.22496 4.25324 2.16916 4.30294 2.0942C4.42963 1.90397 4.54939 1.70925 4.66752 1.51371C4.82273 1.25708 4.68667 1.01551 4.38563 1.01429C3.77093 1.01226 3.15581 1.01348 2.54111 1.01348C2.21603 1.01348 2.12112 1.10595 2.12112 1.42735C2.12071 2.37772 2.11868 3.32809 2.12397 4.27806C2.12479 4.39945 2.0869 4.44792 1.97366 4.49559C1.61885 4.64468 1.26281 4.79581 0.926742 4.98116C0.484758 5.22435 0.136058 5.56409 0 6.07492V12.7528C0.19594 13.4326 0.732025 13.7752 1.31659 14.0596C2.17815 14.4787 3.10245 14.6942 4.03978 14.8547C5.81587 15.1582 7.60418 15.2242 9.40104 15.1077C10.6048 15.0299 11.7955 14.869 12.9605 14.5488C13.638 14.3626 14.2987 14.1304 14.8796 13.7206C15.2226 13.4787 15.5106 13.189 15.5933 12.7536C15.6104 12.6648 15.6112 12.5719 15.6112 12.4806C15.612 10.4328 15.6088 8.38464 15.6145 6.33685L15.6149 6.33766ZM11.4961 1.62859H12.629C12.5495 1.75895 12.4799 1.87912 12.4041 1.99521C12.3169 2.12923 12.3161 2.25878 12.4029 2.3932C12.4762 2.50645 12.545 2.62336 12.6261 2.75535H11.4961V1.62818V1.62859ZM2.7456 1.63307H3.87602C3.79089 1.76954 3.71715 1.88971 3.64138 2.00866C3.56236 2.13249 3.56154 2.25552 3.63976 2.37976C3.7143 2.4983 3.78844 2.61766 3.87399 2.75535H2.7456V1.63307ZM7.11494 1.01796H8.25188C8.17448 1.14505 8.1093 1.26156 8.03475 1.37155C7.9374 1.51494 7.93495 1.6514 8.03231 1.79561C8.10523 1.90315 8.16918 2.0164 8.24862 2.14553H7.11494V1.01796ZM5.51157 14.4404C5.30137 14.4168 5.09647 14.3969 4.89279 14.3696C3.88987 14.2347 2.89551 14.053 1.95532 13.6665C1.61111 13.5251 1.2844 13.3324 0.969108 13.1328C0.710842 12.9691 0.581709 12.7198 0.606151 12.3935C0.626926 12.1177 0.610224 11.8391 0.610224 11.5751C0.943444 11.747 1.262 11.9352 1.59889 12.0806C2.43805 12.4436 3.32609 12.6363 4.22472 12.7813C4.6496 12.8497 5.07733 12.9006 5.51198 12.9605V14.44L5.51157 14.4404ZM0.610224 7.38661C0.610224 7.36788 0.614705 7.34914 0.61552 7.34343C0.932853 7.51086 1.24978 7.67543 1.56385 7.84612C1.5944 7.86282 1.6221 7.91618 1.6221 7.95244C1.62455 9.08897 1.62373 10.2255 1.62251 11.362C1.62251 11.3755 1.61436 11.3889 1.605 11.4187C1.27748 11.2561 0.955258 11.0944 0.73732 10.795C0.669699 10.7021 0.616742 10.5738 0.61552 10.4614C0.606151 9.43645 0.610224 8.41153 0.610224 7.38661ZM2.04861 7.36788C2.181 7.1699 2.37368 7.04688 2.5741 6.93893C3.20184 6.60041 3.88376 6.42239 4.57831 6.29163C6.14502 5.9967 7.72435 5.95108 9.31142 6.0684C10.3013 6.14172 11.2777 6.28756 12.2244 6.59512C12.6261 6.72547 13.0159 6.88353 13.3536 7.14627C13.4331 7.20819 13.5133 7.2697 13.6062 7.3418C11.4957 8.48037 4.31108 8.482 2.04861 7.36788ZM7.49134 8.85555V10.1815C6.33321 10.4328 5.67411 11.1429 5.50913 12.3373C5.21624 12.303 4.92131 12.2684 4.6162 12.233V8.64495C5.57227 8.71501 6.5263 8.78467 7.49134 8.85555ZM3.98968 8.53292V12.1226C3.82673 12.0904 3.66909 12.0672 3.51551 12.0277C3.12322 11.9266 2.73257 11.8179 2.3415 11.7128C2.27225 11.694 2.23233 11.6639 2.23274 11.5779C2.236 10.441 2.23518 9.30365 2.23559 8.16671C2.23559 8.15204 2.2417 8.13738 2.24577 8.11823C2.82585 8.25633 3.40389 8.39361 3.98968 8.53333V8.53292ZM9.47803 14.4926C8.35738 14.5737 7.25303 14.5724 6.15357 14.4942C6.14339 14.4767 6.13402 14.4681 6.13402 14.4596C6.13402 13.754 6.11161 13.0477 6.13972 12.3434C6.17435 11.4724 6.92307 10.7881 7.80093 10.7807C8.67024 10.7734 9.43037 11.4549 9.47151 12.3315C9.50491 13.0448 9.47844 13.761 9.47844 14.4926H9.47803ZM9.48699 10.9107C9.11792 10.5131 8.6625 10.2752 8.11949 10.1941V8.85596C9.0833 8.78549 10.0381 8.71583 11.0073 8.64495C11.0073 8.74964 11.0048 8.87592 11.0077 9.00179C11.0121 9.19407 11.1429 9.33176 11.3152 9.32931C11.4831 9.32687 11.6101 9.19488 11.6154 9.00913C11.6199 8.85189 11.6163 8.69464 11.6163 8.53578C12.2008 8.39605 12.7793 8.25796 13.3716 8.1162C13.3736 8.16386 13.3777 8.21274 13.3777 8.26162C13.3777 9.34886 13.376 10.4365 13.3805 11.5238C13.3809 11.6382 13.3545 11.6969 13.2359 11.7258C12.7283 11.8492 12.2232 11.9812 11.7169 12.1087C11.6892 12.1156 11.6586 12.1124 11.6159 12.1144C11.6159 12.0008 11.6199 11.8949 11.615 11.7889C11.6069 11.6064 11.4733 11.4745 11.3067 11.4773C11.1388 11.4798 11.013 11.6126 11.0077 11.7975C11.0036 11.9295 11.0048 12.0615 11.0028 12.1935C11.0028 12.2024 10.9946 12.2114 10.984 12.2334C10.6964 12.2684 10.4015 12.3043 10.0931 12.3417C10.0455 11.7857 9.85565 11.3083 9.48618 10.9111L9.48699 10.9107ZM14.9998 12.5882C14.9945 12.8155 14.8458 12.9691 14.6845 13.1055C14.37 13.3715 14.0022 13.5443 13.6217 13.6893C12.6041 14.0763 11.5433 14.2738 10.4667 14.4009C10.351 14.4144 10.2349 14.4262 10.1054 14.44V12.9613C11.8012 12.7365 13.5007 12.5242 15.0018 11.5547C15.0018 11.9079 15.0079 12.248 14.9998 12.5882ZM14.8242 10.8667C14.5981 11.1148 14.3105 11.27 13.9965 11.4248C13.9928 11.3551 13.9879 11.307 13.9879 11.2586C13.9875 10.1778 13.9887 9.09712 13.9859 8.01639C13.9859 7.91333 14.0115 7.85834 14.1121 7.80905C14.4107 7.66362 14.7004 7.49986 15.0026 7.33814V7.4746C15.0026 8.44371 14.9998 9.41282 15.0051 10.3819C15.0059 10.5718 14.9489 10.7298 14.8242 10.8663V10.8667ZM14.8841 6.55764C14.6922 6.81713 14.4217 6.97477 14.1431 7.12468C13.7683 6.55112 13.1936 6.2953 12.598 6.07899C11.7829 5.78284 10.9343 5.63008 10.076 5.52783C8.90773 5.38892 7.73575 5.36326 6.56215 5.4374C5.27164 5.51928 3.9966 5.69241 2.78186 6.16861C2.59366 6.24234 2.41116 6.334 2.23355 6.43136C1.93211 6.59674 1.6661 6.80653 1.45672 7.15809C1.22167 6.97274 0.982958 6.81631 0.783759 6.62037C0.545454 6.38573 0.534455 6.12624 0.77439 5.89405C0.993142 5.68222 1.24896 5.4928 1.51904 5.35267C2.26858 4.96405 3.08371 4.76648 3.90861 4.61372C5.73155 4.27683 7.56955 4.21043 9.41652 4.33142C10.6252 4.41085 11.8191 4.57543 12.9838 4.91883C13.4763 5.06426 13.9614 5.23372 14.3932 5.51765C14.5688 5.63293 14.7346 5.77551 14.8727 5.93356C15.0548 6.14172 15.0474 6.33726 14.8841 6.55805V6.55764Z" fill="#F7F7FA"/>
</svg>
