<svg width="60" height="71" viewBox="0 0 60 71" fill="none" xmlns="http://www.w3.org/2000/svg">
<path d="M3.41666 48.6417L30 28.0167L56.5833 48.6417C54.8111 53.4695 52.2603 57.8243 48.931 61.7061C45.6017 65.5878 41.7358 68.6581 37.3333 70.9167V51.7584C37.3333 50.7195 36.9813 49.8493 36.2773 49.1477C35.5733 48.4462 34.7031 48.0942 33.6667 48.0917H26.3333C25.2944 48.0917 24.423 48.4437 23.719 49.1477C23.015 49.8517 22.6642 50.7219 22.6667 51.7584V70.9167C18.2667 68.6556 14.4008 65.5854 11.069 61.7061C7.73721 57.8267 5.18644 53.4719 3.41666 48.6417ZM0.666659 33.7001V16.4667C0.666659 14.9389 1.11033 13.5493 1.99766 12.2977C2.88499 11.0462 4.03022 10.1442 5.43333 9.59173L27.4333 1.34173C28.2889 1.03617 29.1444 0.883392 30 0.883392C30.8555 0.883392 31.7111 1.03617 32.5667 1.34173L54.5667 9.59173C55.9722 10.1417 57.1187 11.0437 58.006 12.2977C58.8933 13.5517 59.3358 14.9414 59.3333 16.4667V33.7001C59.3333 34.9223 59.2722 36.1298 59.15 37.3227C59.0278 38.5156 58.875 39.7219 58.6917 40.9417L34.4917 22.2417C33.1472 21.2028 31.65 20.6834 30 20.6834C28.35 20.6834 26.8528 21.2028 25.5083 22.2417L1.30833 40.9417C1.06388 39.7195 0.895215 38.5132 0.802326 37.3227C0.709437 36.1323 0.664215 34.9247 0.666659 33.7001Z" fill="#421963"/>
</svg>
